<svg width="40" height="40" viewBox="0 0 40 40" fill="none" xmlns="http://www.w3.org/2000/svg">
<path d="M37.6 20.417C37.6 19.117 37.4833 17.867 37.2667 16.667H20V23.7587H29.8667C29.4417 26.0503 28.15 27.992 26.2083 29.292V33.892H32.1333C35.6 30.7003 37.6 26.0003 37.6 20.417Z" fill="#4285F4"/>
<path d="M20 38.3333C24.95 38.3333 29.1 36.6917 32.1333 33.8917L26.2083 29.2917C24.5666 30.3917 22.4666 31.0417 20 31.0417C15.225 31.0417 11.1833 27.8167 9.74164 23.4833H3.61664V28.2333C6.6333 34.225 12.8333 38.3333 20 38.3333Z" fill="#34A853"/>
<path d="M9.74169 23.4833C9.37502 22.3833 9.16669 21.2083 9.16669 20C9.16669 18.7917 9.37502 17.6167 9.74169 16.5167V11.7667H3.61669C2.33335 14.3214 1.66556 17.141 1.66669 20C1.66669 22.9583 2.37502 25.7583 3.61669 28.2333L9.74169 23.4833Z" fill="#FBBC05"/>
<path d="M20 8.95866C22.6917 8.95866 25.1084 9.88366 27.0084 11.7003L32.2667 6.44199C29.0917 3.48366 24.9417 1.66699 20 1.66699C12.8334 1.66699 6.63337 5.77532 3.6167 11.767L9.7417 16.517C11.1834 12.1837 15.225 8.95866 20 8.95866Z" fill="#EA4335"/>
</svg>
