<svg width="883" height="144" viewBox="0 0 883 144" fill="none" xmlns="http://www.w3.org/2000/svg">
<path d="M212.42 123.38V18.5698H254.34C274.14 18.5698 286.78 30.2198 286.78 45.5198C286.78 55.1698 284.12 61.6598 278.3 65.6498C288.61 70.3098 293.61 78.6298 293.61 90.5998C293.61 111.56 278.64 123.37 253.52 123.37H212.43L212.42 123.38ZM232.38 36.8698V58.3298H252.18C261.83 58.3298 265.99 54.1698 265.99 47.5198C265.99 40.5298 262.33 36.8698 252.01 36.8698H232.38ZM232.38 76.6298V105.08H252.68C266.99 105.08 272.81 99.7598 272.81 90.6098C272.81 81.4598 266.65 76.6398 252.68 76.6398H232.38V76.6298Z" fill="#1A4348"/>
<path d="M339.18 41.0298C362.14 41.0298 381.1 58.4998 381.1 82.9498C381.1 107.4 362.13 124.71 339.18 124.71C316.23 124.71 297.09 107.24 297.09 82.9498C297.09 58.6598 315.89 41.0298 339.18 41.0298ZM339.18 105.25C351.16 105.25 361.14 96.5998 361.14 82.7898C361.14 68.9798 351.16 60.4998 339.18 60.4998C327.2 60.4998 316.89 69.1498 316.89 82.7898C316.89 96.4298 326.87 105.25 339.18 105.25Z" fill="#1A4348"/>
<path d="M384.6 41.8599H404.4V85.7799C404.4 99.5899 410.39 105.58 421.37 105.58C435.51 105.58 443.66 93.4399 443.66 93.4399V41.8699H463.62V123.39H446.15L443.99 112.58C437.17 120.4 428.19 124.73 417.21 124.73C398.24 124.73 384.6 110.26 384.6 90.6199V41.8699V41.8599Z" fill="#1A4348"/>
<path d="M546.8 123.38H527V80.12C527 66.15 521.01 60.16 510.03 60.16C495.89 60.16 487.74 71.81 487.74 71.81V123.38H467.78V41.86H486.08L487.74 52.67C494.39 45.02 503.38 41.02 514.19 41.02C533.16 41.02 546.8 55.49 546.8 75.13V123.38Z" fill="#1A4348"/>
<path d="M615.5 16.0698H635.46V123.38H617.16L615.66 114.06C608.84 121.05 599.69 124.71 590.21 124.71C567.92 124.71 550.28 107.24 550.28 82.9498C550.28 58.6598 567.91 41.0298 590.21 41.0298C599.69 41.0298 608.68 44.6898 615.5 51.5098V16.0698ZM592.38 60.1598C579.9 60.1598 569.75 68.9798 569.75 82.9498C569.75 96.9198 579.9 105.58 592.38 105.58C604.86 105.58 615.5 96.7598 615.5 82.9498C615.5 69.1398 605.19 60.1598 592.38 60.1598Z" fill="#1A4348"/>
<path d="M639.62 16.0698H659.58V123.38H639.62V16.0698Z" fill="#1A4348"/>
<path d="M745.76 94.0998C742.93 112.4 724.3 124.71 705 124.71C681.71 124.71 662.91 107.24 662.91 82.9498C662.91 58.6598 681.71 41.0298 705 41.0298C728.29 41.0298 745.76 56.1698 746.43 80.1298V87.7798H683.21C685.21 98.5898 694.19 105.25 705 105.25C713.32 105.25 720.97 101.26 724.46 94.0998H745.75H745.76ZM723.63 71.9698C720.3 64.8198 713.48 60.4898 705 60.4898C696.52 60.4898 688.86 64.8198 685.2 71.9698H723.63Z" fill="#1A4348"/>
<path d="M814.8 100.75C814.8 115.22 803.15 124.71 784.02 124.71C763.89 124.71 750.41 111.4 749.92 94.76H769.88C770.71 101.41 776.53 105.24 784.35 105.24C790.51 105.24 794.83 103.24 794.83 99.58C794.83 90.6 751.08 97.25 751.08 66.47C751.08 52.5 763.56 41.02 782.69 41.02C801.82 41.02 813.47 53.17 813.97 71.13H793.84C792.68 64.14 788.52 60.48 782.03 60.48C775.54 60.48 770.88 62.81 770.88 66.97C770.88 78.95 814.8 71.63 814.8 100.74V100.75Z" fill="#1A4348"/>
<path d="M882.34 100.75C882.34 115.22 870.69 124.71 851.56 124.71C831.43 124.71 817.95 111.4 817.46 94.76H837.42C838.25 101.41 844.07 105.24 851.89 105.24C858.05 105.24 862.37 103.24 862.37 99.58C862.37 90.6 818.62 97.25 818.62 66.47C818.62 52.5 831.1 41.02 850.23 41.02C869.36 41.02 881.01 53.17 881.51 71.13H861.38C860.22 64.14 856.06 60.48 849.57 60.48C843.08 60.48 838.42 62.81 838.42 66.97C838.42 78.95 882.34 71.63 882.34 100.74V100.75Z" fill="#1A4348"/>
<path d="M37.5201 134.86L111.96 90.2001V52.9801L37.5201 0.870117L0.300049 23.2001L74.7401 67.8601L37.5201 90.2001V134.86Z" fill="#1A4348"/>
<path d="M118.51 9.87988L192.95 54.5399V91.7599L118.51 143.87L81.29 121.54L155.73 76.8799L118.51 54.5399V9.87988Z" fill="#1A4348"/>
</svg>
